name rise49.5252peak65.1548fall88.8305.mot
datacolumns 19
datarows 55
range 12.498279 12.588276
endheader
time	ground_force1_vx	ground_force1_vy	ground_force1_vz	ground_force1_px	ground_force1_py	ground_force1_pz	ground_force2_vx	ground_force2_vy	ground_force2_vz	ground_force2_px	ground_force2_py	ground_force2_pz	ground_torque1_x	ground_torque1_y	ground_torque1_z	ground_torque2_x	ground_torque2_y	ground_torque2_z	
12.498279	-2.143132	733.232550	45.490872	0.268557	0.000000	0.081800	0.000000	0.000000	0.000000	0.000000	0.000000	0.000000	0.000000	25.237560	0.000000	0.000000	0.000000	0.000000	
12.499951	-2.656928	734.444172	45.529976	0.267590	0.000000	0.081735	0.000000	0.000000	0.000000	0.000000	0.000000	0.000000	0.000000	25.305186	0.000000	0.000000	0.000000	0.000000	
12.501611	-3.172181	735.672816	45.569300	0.266631	0.000000	0.081669	0.000000	0.000000	0.000000	0.000000	0.000000	0.000000	0.000000	25.373876	0.000000	0.000000	0.000000	0.000000	
12.503283	-3.688783	736.917606	45.608917	0.265681	0.000000	0.081601	0.000000	0.000000	0.000000	0.000000	0.000000	0.000000	0.000000	25.443597	0.000000	0.000000	0.000000	0.000000	
12.504952	-4.206631	738.177672	45.648911	0.264739	0.000000	0.081533	0.000000	0.000000	0.000000	0.000000	0.000000	0.000000	0.000000	25.514314	0.000000	0.000000	0.000000	0.000000	
12.506617	-4.725624	739.452145	45.689370	0.263806	0.000000	0.081463	0.000000	0.000000	0.000000	0.000000	0.000000	0.000000	0.000000	25.585996	0.000000	0.000000	0.000000	0.000000	
12.508286	-5.245666	740.740155	45.730393	0.262881	0.000000	0.081391	0.000000	0.000000	0.000000	0.000000	0.000000	0.000000	0.000000	25.658607	0.000000	0.000000	0.000000	0.000000	
12.509943	-5.766664	742.040827	45.772082	0.261965	0.000000	0.081319	0.000000	0.000000	0.000000	0.000000	0.000000	0.000000	0.000000	25.732115	0.000000	0.000000	0.000000	0.000000	
12.511621	-6.288529	743.353281	45.814550	0.261057	0.000000	0.081246	0.000000	0.000000	0.000000	0.000000	0.000000	0.000000	0.000000	25.806484	0.000000	0.000000	0.000000	0.000000	
12.513283	-6.811178	744.676627	45.857913	0.260157	0.000000	0.081172	0.000000	0.000000	0.000000	0.000000	0.000000	0.000000	0.000000	25.881681	0.000000	0.000000	0.000000	0.000000	
12.514946	-7.334530	746.009965	45.902293	0.259264	0.000000	0.081098	0.000000	0.000000	0.000000	0.000000	0.000000	0.000000	0.000000	25.957670	0.000000	0.000000	0.000000	0.000000	
12.516611	-7.858509	747.352380	45.947818	0.258379	0.000000	0.081023	0.000000	0.000000	0.000000	0.000000	0.000000	0.000000	0.000000	26.034414	0.000000	0.000000	0.000000	0.000000	
12.518280	-8.383045	748.702942	45.994619	0.257501	0.000000	0.080947	0.000000	0.000000	0.000000	0.000000	0.000000	0.000000	0.000000	26.111877	0.000000	0.000000	0.000000	0.000000	
12.519948	-8.908070	750.060704	46.042833	0.256631	0.000000	0.080872	0.000000	0.000000	0.000000	0.000000	0.000000	0.000000	0.000000	26.190020	0.000000	0.000000	0.000000	0.000000	
12.521614	-9.433521	751.424696	46.092599	0.255767	0.000000	0.080796	0.000000	0.000000	0.000000	0.000000	0.000000	0.000000	0.000000	26.268805	0.000000	0.000000	0.000000	0.000000	
12.523280	-9.959338	752.793930	46.144057	0.254909	0.000000	0.080719	0.000000	0.000000	0.000000	0.000000	0.000000	0.000000	0.000000	26.348191	0.000000	0.000000	0.000000	0.000000	
12.524947	-10.485466	754.167391	46.197352	0.254056	0.000000	0.080643	0.000000	0.000000	0.000000	0.000000	0.000000	0.000000	0.000000	26.428137	0.000000	0.000000	0.000000	0.000000	
12.526615	-11.011852	755.544043	46.252629	0.253210	0.000000	0.080567	0.000000	0.000000	0.000000	0.000000	0.000000	0.000000	0.000000	26.508600	0.000000	0.000000	0.000000	0.000000	
12.528279	-11.538446	756.922821	46.310033	0.252368	0.000000	0.080491	0.000000	0.000000	0.000000	0.000000	0.000000	0.000000	0.000000	26.589534	0.000000	0.000000	0.000000	0.000000	
12.529949	-12.065201	758.302636	46.369708	0.251531	0.000000	0.080416	0.000000	0.000000	0.000000	0.000000	0.000000	0.000000	0.000000	26.670894	0.000000	0.000000	0.000000	0.000000	
12.531613	-12.592071	759.682371	46.431800	0.250697	0.000000	0.080340	0.000000	0.000000	0.000000	0.000000	0.000000	0.000000	0.000000	26.752632	0.000000	0.000000	0.000000	0.000000	
12.533281	-13.119014	761.060879	46.496451	0.249868	0.000000	0.080266	0.000000	0.000000	0.000000	0.000000	0.000000	0.000000	0.000000	26.834696	0.000000	0.000000	0.000000	0.000000	
12.534944	-13.645985	762.436990	46.563799	0.249042	0.000000	0.080192	0.000000	0.000000	0.000000	0.000000	0.000000	0.000000	0.000000	26.917035	0.000000	0.000000	0.000000	0.000000	
12.536611	-14.172944	763.809501	46.633981	0.248218	0.000000	0.080119	0.000000	0.000000	0.000000	0.000000	0.000000	0.000000	0.000000	26.999593	0.000000	0.000000	0.000000	0.000000	
12.538276	-14.699847	765.177185	46.707129	0.247397	0.000000	0.080046	0.000000	0.000000	0.000000	0.000000	0.000000	0.000000	0.000000	27.082312	0.000000	0.000000	0.000000	0.000000	
12.539961	-15.226652	766.538788	46.783368	0.246577	0.000000	0.079975	0.000000	0.000000	0.000000	0.000000	0.000000	0.000000	0.000000	27.165134	0.000000	0.000000	0.000000	0.000000	
12.541615	-15.753316	767.893029	46.862819	0.245759	0.000000	0.079905	0.000000	0.000000	0.000000	0.000000	0.000000	0.000000	0.000000	27.247994	0.000000	0.000000	0.000000	0.000000	
12.543282	-16.279791	769.238603	46.945594	0.244941	0.000000	0.079835	0.000000	0.000000	0.000000	0.000000	0.000000	0.000000	0.000000	27.330826	0.000000	0.000000	0.000000	0.000000	
12.544950	-16.806031	770.574181	47.031798	0.244124	0.000000	0.079767	0.000000	0.000000	0.000000	0.000000	0.000000	0.000000	0.000000	27.413562	0.000000	0.000000	0.000000	0.000000	
12.546619	-17.331986	771.898415	47.121527	0.243307	0.000000	0.079701	0.000000	0.000000	0.000000	0.000000	0.000000	0.000000	0.000000	27.496128	0.000000	0.000000	0.000000	0.000000	
12.548280	-17.857600	773.209933	47.214866	0.242489	0.000000	0.079635	0.000000	0.000000	0.000000	0.000000	0.000000	0.000000	0.000000	27.578449	0.000000	0.000000	0.000000	0.000000	
12.549943	-18.382818	774.507347	47.311891	0.241671	0.000000	0.079571	0.000000	0.000000	0.000000	0.000000	0.000000	0.000000	0.000000	27.660445	0.000000	0.000000	0.000000	0.000000	
12.551612	-18.907577	775.789256	47.412663	0.240851	0.000000	0.079508	0.000000	0.000000	0.000000	0.000000	0.000000	0.000000	0.000000	27.742034	0.000000	0.000000	0.000000	0.000000	
12.553281	-19.431812	777.054240	47.517235	0.240029	0.000000	0.079447	0.000000	0.000000	0.000000	0.000000	0.000000	0.000000	0.000000	27.823129	0.000000	0.000000	0.000000	0.000000	
12.554959	-19.955451	778.300873	47.625641	0.239205	0.000000	0.079387	0.000000	0.000000	0.000000	0.000000	0.000000	0.000000	0.000000	27.903639	0.000000	0.000000	0.000000	0.000000	
12.556614	-20.478419	779.527719	47.737906	0.238379	0.000000	0.079329	0.000000	0.000000	0.000000	0.000000	0.000000	0.000000	0.000000	27.983471	0.000000	0.000000	0.000000	0.000000	
12.558277	-21.000633	780.733335	47.854036	0.237550	0.000000	0.079273	0.000000	0.000000	0.000000	0.000000	0.000000	0.000000	0.000000	28.062527	0.000000	0.000000	0.000000	0.000000	
12.559944	-21.522007	781.916278	47.974022	0.236718	0.000000	0.079218	0.000000	0.000000	0.000000	0.000000	0.000000	0.000000	0.000000	28.140705	0.000000	0.000000	0.000000	0.000000	
12.561610	-22.042447	783.075103	48.097839	0.235883	0.000000	0.079165	0.000000	0.000000	0.000000	0.000000	0.000000	0.000000	0.000000	28.217900	0.000000	0.000000	0.000000	0.000000	
12.563280	-22.561854	784.208368	48.225444	0.235044	0.000000	0.079113	0.000000	0.000000	0.000000	0.000000	0.000000	0.000000	0.000000	28.294002	0.000000	0.000000	0.000000	0.000000	
12.564946	-23.080122	785.314637	48.356775	0.234201	0.000000	0.079063	0.000000	0.000000	0.000000	0.000000	0.000000	0.000000	0.000000	28.368900	0.000000	0.000000	0.000000	0.000000	
12.566618	-23.597142	786.392484	48.491753	0.233354	0.000000	0.079015	0.000000	0.000000	0.000000	0.000000	0.000000	0.000000	0.000000	28.442475	0.000000	0.000000	0.000000	0.000000	
12.568284	-24.112794	787.440492	48.630279	0.232503	0.000000	0.078968	0.000000	0.000000	0.000000	0.000000	0.000000	0.000000	0.000000	28.514609	0.000000	0.000000	0.000000	0.000000	
12.569943	-24.626958	788.457260	48.772233	0.231648	0.000000	0.078923	0.000000	0.000000	0.000000	0.000000	0.000000	0.000000	0.000000	28.585177	0.000000	0.000000	0.000000	0.000000	
12.571611	-25.139505	789.441403	48.917476	0.230788	0.000000	0.078879	0.000000	0.000000	0.000000	0.000000	0.000000	0.000000	0.000000	28.654052	0.000000	0.000000	0.000000	0.000000	
12.573277	-25.650302	790.391554	49.065849	0.229924	0.000000	0.078837	0.000000	0.000000	0.000000	0.000000	0.000000	0.000000	0.000000	28.721103	0.000000	0.000000	0.000000	0.000000	
12.574945	-26.159213	791.306371	49.217169	0.229055	0.000000	0.078796	0.000000	0.000000	0.000000	0.000000	0.000000	0.000000	0.000000	28.786197	0.000000	0.000000	0.000000	0.000000	
12.576611	-26.666095	792.184531	49.371235	0.228182	0.000000	0.078757	0.000000	0.000000	0.000000	0.000000	0.000000	0.000000	0.000000	28.849196	0.000000	0.000000	0.000000	0.000000	
12.578285	-27.170805	793.024741	49.527822	0.227305	0.000000	0.078719	0.000000	0.000000	0.000000	0.000000	0.000000	0.000000	0.000000	28.909961	0.000000	0.000000	0.000000	0.000000	
12.579944	-27.673196	793.825733	49.686685	0.226422	0.000000	0.078682	0.000000	0.000000	0.000000	0.000000	0.000000	0.000000	0.000000	28.968349	0.000000	0.000000	0.000000	0.000000	
12.581616	-28.173118	794.586270	49.847557	0.225536	0.000000	0.078647	0.000000	0.000000	0.000000	0.000000	0.000000	0.000000	0.000000	29.024217	0.000000	0.000000	0.000000	0.000000	
12.583277	-28.670423	795.305144	50.010149	0.224645	0.000000	0.078612	0.000000	0.000000	0.000000	0.000000	0.000000	0.000000	0.000000	29.077416	0.000000	0.000000	0.000000	0.000000	
12.584943	-29.164961	795.981179	50.174150	0.223750	0.000000	0.078578	0.000000	0.000000	0.000000	0.000000	0.000000	0.000000	0.000000	29.127800	0.000000	0.000000	0.000000	0.000000	
12.586611	-29.656583	796.613232	50.339228	0.222850	0.000000	0.078546	0.000000	0.000000	0.000000	0.000000	0.000000	0.000000	0.000000	29.175219	0.000000	0.000000	0.000000	0.000000	
12.588276	-30.145145	797.200191	50.505031	0.221947	0.000000	0.078514	0.000000	0.000000	0.000000	0.000000	0.000000	0.000000	0.000000	29.219521	0.000000	0.000000	0.000000	0.000000	
